{
	"asset":{
		"generator":"Khronos glTF Blender I/O v3.6.27",
		"version":"2.0"
	},
	"scene":0,
	"scenes":[
		{
			"name":"Scene",
			"nodes":[
				0
			]
		}
	],
	"nodes":[
		{
			"mesh":0,
			"name":"Sink",
			"translation":[
				0,
				0.36794009804725647,
				0.17378951609134674
			]
		}
	],
	"materials":[
		{
			"doubleSided":true,
			"name":"Material.001",
			"pbrMetallicRoughness":{}
		}
	],
	"meshes":[
		{
			"name":"Cube.008",
			"primitives":[
				{
					"attributes":{
						"POSITION":0,
						"NORMAL":1,
						"TEXCOORD_0":2
					},
					"indices":3,
					"material":0
				}
			]
		}
	],
	"accessors":[
		{
			"bufferView":0,
			"componentType":5126,
			"count":1449,
			"max":[
				0.46067291498184204,
				0.24138572812080383,
				0.2589178681373596
			],
			"min":[
				-0.46067291498184204,
				-0.13545328378677368,
				-0.2589178681373596
			],
			"type":"VEC3"
		},
		{
			"bufferView":1,
			"componentType":5126,
			"count":1449,
			"type":"VEC3"
		},
		{
			"bufferView":2,
			"componentType":5126,
			"count":1449,
			"type":"VEC2"
		},
		{
			"bufferView":3,
			"componentType":5123,
			"count":7728,
			"type":"SCALAR"
		}
	],
	"bufferViews":[
		{
			"buffer":0,
			"byteLength":17388,
			"byteOffset":0,
			"target":34962
		},
		{
			"buffer":0,
			"byteLength":17388,
			"byteOffset":17388,
			"target":34962
		},
		{
			"buffer":0,
			"byteLength":11592,
			"byteOffset":34776,
			"target":34962
		},
		{
			"buffer":0,
			"byteLength":15456,
			"byteOffset":46368,
			"target":34963
		}
	],
	"buffers":[
		{
			"byteLength":61824,
			"uri":"data:application/octet-stream;base64,"
		}
	]
}
