{
	"asset":{
		"generator":"Khronos glTF Blender I/O v3.6.27",
		"version":"2.0"
	},
	"scene":0,
	"scenes":[
		{
			"name":"Scene",
			"nodes":[
				0,
				1,
				2
			]
		}
	],
	"nodes":[
		{
			"mesh":0,
			"name":"Bath",
			"scale":[
				1,
				1.2124786376953125,
				1
			]
		},
		{
			"mesh":1,
			"name":"Faucet",
			"translation":[
				0,
				0.3357461094856262,
				-0.5979781150817871
			]
		},
		{
			"mesh":2,
			"name":"Water",
			"translation":[
				0,
				0.28719261288642883,
				0
			]
		}
	],
	"materials":[
		{
			"doubleSided":true,
			"name":"Material.001",
			"pbrMetallicRoughness":{}
		},
		{
			"doubleSided":true,
			"name":"Material.001",
			"pbrMetallicRoughness":{}
		}
	],
	"meshes":[
		{
			"name":"Cube.008",
			"primitives":[
				{
					"attributes":{
						"POSITION":0,
						"NORMAL":1,
						"TEXCOORD_0":2
					},
					"indices":3,
					"material":0
				}
			]
		},
		{
			"name":"Cube.001",
			"primitives":[
				{
					"attributes":{
						"POSITION":4,
						"NORMAL":5,
						"TEXCOORD_0":6
					},
					"indices":7,
					"material":1
				}
			]
		},
		{
			"name":"Cube.002",
			"primitives":[
				{
					"attributes":{
						"POSITION":8,
						"NORMAL":9,
						"TEXCOORD_0":10
					},
					"indices":11,
					"material":1
				}
			]
		}
	],
	"accessors":[
		{
			"bufferView":0,
			"componentType":5126,
			"count":286,
			"max":[
				0.4602351188659668,
				0.34445321559906006,
				0.88530033826828
			],
			"min":[
				-0.4602351188659668,
				1.4901161193847656e-08,
				-0.88530033826828
			],
			"type":"VEC3"
		},
		{
			"bufferView":1,
			"componentType":5126,
			"count":286,
			"type":"VEC3"
		},
		{
			"bufferView":2,
			"componentType":5126,
			"count":286,
			"type":"VEC2"
		},
		{
			"bufferView":3,
			"componentType":5123,
			"count":1440,
			"type":"SCALAR"
		},
		{
			"bufferView":4,
			"componentType":5126,
			"count":1392,
			"max":[
				0.05148839205503464,
				0.24138572812080383,
				-0.10921173542737961
			],
			"min":[
				-0.051488474011421204,
				0.06763401627540588,
				-0.2439778745174408
			],
			"type":"VEC3"
		},
		{
			"bufferView":5,
			"componentType":5126,
			"count":1392,
			"type":"VEC3"
		},
		{
			"bufferView":6,
			"componentType":5126,
			"count":1392,
			"type":"VEC2"
		},
		{
			"bufferView":7,
			"componentType":5123,
			"count":6876,
			"type":"SCALAR"
		},
		{
			"bufferView":8,
			"componentType":5126,
			"count":4,
			"max":[
				0.4231274127960205,
				0,
				0.7919604778289795
			],
			"min":[
				-0.4231274127960205,
				0,
				-0.7919604778289795
			],
			"type":"VEC3"
		},
		{
			"bufferView":9,
			"componentType":5126,
			"count":4,
			"type":"VEC3"
		},
		{
			"bufferView":10,
			"componentType":5126,
			"count":4,
			"type":"VEC2"
		},
		{
			"bufferView":11,
			"componentType":5123,
			"count":6,
			"type":"SCALAR"
		}
	],
	"bufferViews":[
		{
			"buffer":0,
			"byteLength":3432,
			"byteOffset":0,
			"target":34962
		},
		{
			"buffer":0,
			"byteLength":3432,
			"byteOffset":3432,
			"target":34962
		},
		{
			"buffer":0,
			"byteLength":2288,
			"byteOffset":6864,
			"target":34962
		},
		{
			"buffer":0,
			"byteLength":2880,
			"byteOffset":9152,
			"target":34963
		},
		{
			"buffer":0,
			"byteLength":16704,
			"byteOffset":12032,
			"target":34962
		},
		{
			"buffer":0,
			"byteLength":16704,
			"byteOffset":28736,
			"target":34962
		},
		{
			"buffer":0,
			"byteLength":11136,
			"byteOffset":45440,
			"target":34962
		},
		{
			"buffer":0,
			"byteLength":13752,
			"byteOffset":56576,
			"target":34963
		},
		{
			"buffer":0,
			"byteLength":48,
			"byteOffset":70328,
			"target":34962
		},
		{
			"buffer":0,
			"byteLength":48,
			"byteOffset":70376,
			"target":34962
		},
		{
			"buffer":0,
			"byteLength":32,
			"byteOffset":70424,
			"target":34962
		},
		{
			"buffer":0,
			"byteLength":12,
			"byteOffset":70456,
			"target":34963
		}
	],
	"buffers":[
		{
			"byteLength":70468,
			"uri":"data:application/octet-stream;base64,"
		}
	]
}
