{
	"asset":{
		"generator":"Khronos glTF Blender I/O v3.6.27",
		"version":"2.0"
	},
	"scene":0,
	"scenes":[
		{
			"name":"Scene",
			"nodes":[
				0,
				1,
				2,
				3
			]
		}
	],
	"nodes":[
		{
			"mesh":0,
			"name":"Bed",
			"scale":[
				1.0499999523162842,
				1.013814091682434,
				0.75
			]
		},
		{
			"mesh":1,
			"name":"Pillows",
			"rotation":[
				0,
				0,
				-0.1692662239074707,
				0.9855703711509705
			],
			"translation":[
				-0.7791520357131958,
				0.2669033408164978,
				0.34741342067718506
			]
		},
		{
			"mesh":2,
			"name":"Cover_proper",
			"translation":[
				0.32817932963371277,
				0.3914981186389923,
				0
			]
		},
		{
			"mesh":3,
			"name":"Cover_pulled",
			"translation":[
				0.32817932963371277,
				1.2916909456253052,
				0
			]
		}
	],
	"materials":[
		{
			"doubleSided":true,
			"name":"Material.001",
			"pbrMetallicRoughness":{}
		}
	],
	"meshes":[
		{
			"name":"Cube",
			"primitives":[
				{
					"attributes":{
						"POSITION":0,
						"NORMAL":1,
						"TEXCOORD_0":2
					},
					"indices":3,
					"material":0
				}
			]
		},
		{
			"name":"Cube.003",
			"primitives":[
				{
					"attributes":{
						"POSITION":4,
						"NORMAL":5,
						"TEXCOORD_0":6
					},
					"indices":7,
					"material":0
				}
			]
		},
		{
			"name":"Mesh",
			"primitives":[
				{
					"attributes":{
						"POSITION":8,
						"NORMAL":9,
						"TEXCOORD_0":10
					},
					"indices":11,
					"material":0
				}
			]
		},
		{
			"name":"Mesh",
			"primitives":[
				{
					"attributes":{
						"POSITION":12,
						"NORMAL":13,
						"TEXCOORD_0":14
					},
					"indices":11,
					"material":0
				}
			]
		}
	],
	"accessors":[
		{
			"bufferView":0,
			"componentType":5126,
			"count":170,
			"max":[
				1,
				0.5575472712516785,
				1
			],
			"min":[
				-1,
				-0.2781643867492676,
				-1
			],
			"type":"VEC3"
		},
		{
			"bufferView":1,
			"componentType":5126,
			"count":170,
			"type":"VEC3"
		},
		{
			"bufferView":2,
			"componentType":5126,
			"count":170,
			"type":"VEC2"
		},
		{
			"bufferView":3,
			"componentType":5123,
			"count":408,
			"type":"SCALAR"
		},
		{
			"bufferView":4,
			"componentType":5126,
			"count":462,
			"max":[
				0.20848670601844788,
				0.09475810825824738,
				0.3358745574951172
			],
			"min":[
				-0.20848676562309265,
				-0.09475813806056976,
				-1.0307013988494873
			],
			"type":"VEC3"
		},
		{
			"bufferView":5,
			"componentType":5126,
			"count":462,
			"type":"VEC3"
		},
		{
			"bufferView":6,
			"componentType":5126,
			"count":462,
			"type":"VEC2"
		},
		{
			"bufferView":7,
			"componentType":5123,
			"count":2016,
			"type":"SCALAR"
		},
		{
			"bufferView":8,
			"componentType":5126,
			"count":8213,
			"max":[
				0.8721790313720703,
				-0.08108274638652802,
				0.9057362079620361
			],
			"min":[
				-0.99831223487854,
				-0.5220774412155151,
				-0.9108422994613647
			],
			"type":"VEC3"
		},
		{
			"bufferView":9,
			"componentType":5126,
			"count":8213,
			"type":"VEC3"
		},
		{
			"bufferView":10,
			"componentType":5126,
			"count":8213,
			"type":"VEC2"
		},
		{
			"bufferView":11,
			"componentType":5123,
			"count":46464,
			"type":"SCALAR"
		},
		{
			"bufferView":12,
			"componentType":5126,
			"count":8213,
			"max":[
				0.9737616777420044,
				-0.9543838500976562,
				0.4904913604259491
			],
			"min":[
				-0.8120120167732239,
				-1.6259608268737793,
				-0.9232599139213562
			],
			"type":"VEC3"
		},
		{
			"bufferView":13,
			"componentType":5126,
			"count":8213,
			"type":"VEC3"
		},
		{
			"bufferView":14,
			"componentType":5126,
			"count":8213,
			"type":"VEC2"
		}
	],
	"bufferViews":[
		{
			"buffer":0,
			"byteLength":2040,
			"byteOffset":0,
			"target":34962
		},
		{
			"buffer":0,
			"byteLength":2040,
			"byteOffset":2040,
			"target":34962
		},
		{
			"buffer":0,
			"byteLength":1360,
			"byteOffset":4080,
			"target":34962
		},
		{
			"buffer":0,
			"byteLength":816,
			"byteOffset":5440,
			"target":34963
		},
		{
			"buffer":0,
			"byteLength":5544,
			"byteOffset":6256,
			"target":34962
		},
		{
			"buffer":0,
			"byteLength":5544,
			"byteOffset":11800,
			"target":34962
		},
		{
			"buffer":0,
			"byteLength":3696,
			"byteOffset":17344,
			"target":34962
		},
		{
			"buffer":0,
			"byteLength":4032,
			"byteOffset":21040,
			"target":34963
		},
		{
			"buffer":0,
			"byteLength":98556,
			"byteOffset":25072,
			"target":34962
		},
		{
			"buffer":0,
			"byteLength":98556,
			"byteOffset":123628,
			"target":34962
		},
		{
			"buffer":0,
			"byteLength":65704,
			"byteOffset":222184,
			"target":34962
		},
		{
			"buffer":0,
			"byteLength":92928,
			"byteOffset":287888,
			"target":34963
		},
		{
			"buffer":0,
			"byteLength":98556,
			"byteOffset":380816,
			"target":34962
		},
		{
			"buffer":0,
			"byteLength":98556,
			"byteOffset":479372,
			"target":34962
		},
		{
			"buffer":0,
			"byteLength":65704,
			"byteOffset":577928,
			"target":34962
		}
	],
	"buffers":[
		{
			"byteLength":643632,
			"uri":"data:application/octet-stream;base64,"
		}
	]
}
