{
	"asset":{
		"generator":"Khronos glTF Blender I/O v3.6.27",
		"version":"2.0"
	},
	"scene":0,
	"scenes":[
		{
			"name":"Scene",
			"nodes":[
				0,
				1,
				2
			]
		}
	],
	"nodes":[
		{
			"mesh":0,
			"name":"Couch"
		},
		{
			"mesh":1,
			"name":"Pillow",
			"scale":[
				0.4403315782546997,
				0.04836751148104668,
				0.32289743423461914
			],
			"translation":[
				0.43446293473243713,
				0.29076218605041504,
				-0.3670821785926819
			]
		},
		{
			"mesh":2,
			"name":"Pillow.001",
			"rotation":[
				-0.6260263323783875,
				0,
				0,
				0.7798019051551819
			],
			"scale":[
				0.4403315782546997,
				0.04836751148104668,
				0.1837797909975052
			],
			"translation":[
				0.43446293473243713,
				0.5017635226249695,
				-0.09805548191070557
			]
		}
	],
	"materials":[
		{
			"doubleSided":true,
			"name":"Material.001",
			"pbrMetallicRoughness":{}
		}
	],
	"meshes":[
		{
			"name":"Cube.001",
			"primitives":[
				{
					"attributes":{
						"POSITION":0,
						"NORMAL":1,
						"TEXCOORD_0":2
					},
					"indices":3,
					"material":0
				}
			]
		},
		{
			"name":"Cube",
			"primitives":[
				{
					"attributes":{
						"POSITION":4,
						"NORMAL":5,
						"TEXCOORD_0":6
					},
					"indices":7,
					"material":0
				}
			]
		},
		{
			"name":"Cube.002",
			"primitives":[
				{
					"attributes":{
						"POSITION":8,
						"NORMAL":9,
						"TEXCOORD_0":10
					},
					"indices":7,
					"material":0
				}
			]
		}
	],
	"accessors":[
		{
			"bufferView":0,
			"componentType":5126,
			"count":395,
			"max":[
				1.1413636207580566,
				0.6387669444084167,
				0.07259979844093323
			],
			"min":[
				-1.1413636207580566,
				0,
				-0.6000000834465027
			],
			"type":"VEC3"
		},
		{
			"bufferView":1,
			"componentType":5126,
			"count":395,
			"type":"VEC3"
		},
		{
			"bufferView":2,
			"componentType":5126,
			"count":395,
			"type":"VEC2"
		},
		{
			"bufferView":3,
			"componentType":5123,
			"count":1026,
			"type":"SCALAR"
		},
		{
			"bufferView":4,
			"componentType":5126,
			"count":296,
			"max":[
				1.0204137563705444,
				1.9248812198638916,
				1.000000238418579
			],
			"min":[
				-2.993758201599121,
				-1.1462996006011963,
				-1.000000238418579
			],
			"type":"VEC3"
		},
		{
			"bufferView":5,
			"componentType":5126,
			"count":296,
			"type":"VEC3"
		},
		{
			"bufferView":6,
			"componentType":5126,
			"count":296,
			"type":"VEC2"
		},
		{
			"bufferView":7,
			"componentType":5123,
			"count":1224,
			"type":"SCALAR"
		},
		{
			"bufferView":8,
			"componentType":5126,
			"count":296,
			"max":[
				1.0204139947891235,
				1.364212989807129,
				1.5355061292648315
			],
			"min":[
				-2.9937586784362793,
				-1.5163040161132812,
				-0.7775790691375732
			],
			"type":"VEC3"
		},
		{
			"bufferView":9,
			"componentType":5126,
			"count":296,
			"type":"VEC3"
		},
		{
			"bufferView":10,
			"componentType":5126,
			"count":296,
			"type":"VEC2"
		}
	],
	"bufferViews":[
		{
			"buffer":0,
			"byteLength":4740,
			"byteOffset":0,
			"target":34962
		},
		{
			"buffer":0,
			"byteLength":4740,
			"byteOffset":4740,
			"target":34962
		},
		{
			"buffer":0,
			"byteLength":3160,
			"byteOffset":9480,
			"target":34962
		},
		{
			"buffer":0,
			"byteLength":2052,
			"byteOffset":12640,
			"target":34963
		},
		{
			"buffer":0,
			"byteLength":3552,
			"byteOffset":14692,
			"target":34962
		},
		{
			"buffer":0,
			"byteLength":3552,
			"byteOffset":18244,
			"target":34962
		},
		{
			"buffer":0,
			"byteLength":2368,
			"byteOffset":21796,
			"target":34962
		},
		{
			"buffer":0,
			"byteLength":2448,
			"byteOffset":24164,
			"target":34963
		},
		{
			"buffer":0,
			"byteLength":3552,
			"byteOffset":26612,
			"target":34962
		},
		{
			"buffer":0,
			"byteLength":3552,
			"byteOffset":30164,
			"target":34962
		},
		{
			"buffer":0,
			"byteLength":2368,
			"byteOffset":33716,
			"target":34962
		}
	],
	"buffers":[
		{
			"byteLength":36084,
			"uri":"data:application/octet-stream;base64,"
		}
	]
}
