{
	"asset":{
		"generator":"Khronos glTF Blender I/O v3.6.27",
		"version":"2.0"
	},
	"scene":0,
	"scenes":[
		{
			"name":"Scene",
			"nodes":[
				0
			]
		}
	],
	"nodes":[
		{
			"mesh":0,
			"name":"Door"
		}
	],
	"meshes":[
		{
			"name":"Cube.002",
			"primitives":[
				{
					"attributes":{
						"POSITION":0,
						"NORMAL":1,
						"TEXCOORD_0":2
					},
					"indices":3
				}
			]
		}
	],
	"accessors":[
		{
			"bufferView":0,
			"componentType":5126,
			"count":594,
			"max":[
				0.7237750887870789,
				1.0445685386657715,
				0.18085025250911713
			],
			"min":[
				-0.7237750887870789,
				-1.0445685386657715,
				-0.18085020780563354
			],
			"type":"VEC3"
		},
		{
			"bufferView":1,
			"componentType":5126,
			"count":594,
			"type":"VEC3"
		},
		{
			"bufferView":2,
			"componentType":5126,
			"count":594,
			"type":"VEC2"
		},
		{
			"bufferView":3,
			"componentType":5123,
			"count":1092,
			"type":"SCALAR"
		}
	],
	"bufferViews":[
		{
			"buffer":0,
			"byteLength":7128,
			"byteOffset":0,
			"target":34962
		},
		{
			"buffer":0,
			"byteLength":7128,
			"byteOffset":7128,
			"target":34962
		},
		{
			"buffer":0,
			"byteLength":4752,
			"byteOffset":14256,
			"target":34962
		},
		{
			"buffer":0,
			"byteLength":2184,
			"byteOffset":19008,
			"target":34963
		}
	],
	"buffers":[
		{
			"byteLength":21192,
			"uri":"data:application/octet-stream;base64,"
		}
	]
}
