{
	"asset":{
		"generator":"Khronos glTF Blender I/O v3.6.27",
		"version":"2.0"
	},
	"scene":0,
	"scenes":[
		{
			"name":"Scene",
			"nodes":[
				4
			]
		}
	],
	"nodes":[
		{
			"name":"Door",
			"rotation":[
				0.7071067690849304,
				-3.6808341974392533e-07,
				-3.6808341974392533e-07,
				0.7071067690849304
			],
			"translation":[
				0.4348212480545044,
				0.7388513684272766,
				0.3522256016731262
			]
		},
		{
			"children":[
				0
			],
			"name":"root"
		},
		{
			"name":"neutral_bone",
			"rotation":[
				-0.7071067690849304,
				0,
				0,
				0.7071067690849304
			]
		},
		{
			"mesh":0,
			"name":"Fridge",
			"skin":0
		},
		{
			"children":[
				3,
				1,
				2
			],
			"name":"Armature"
		}
	],
	"animations":[
		{
			"channels":[
				{
					"sampler":0,
					"target":{
						"node":1,
						"path":"translation"
					}
				},
				{
					"sampler":1,
					"target":{
						"node":1,
						"path":"rotation"
					}
				},
				{
					"sampler":2,
					"target":{
						"node":1,
						"path":"scale"
					}
				},
				{
					"sampler":3,
					"target":{
						"node":0,
						"path":"translation"
					}
				},
				{
					"sampler":4,
					"target":{
						"node":0,
						"path":"rotation"
					}
				},
				{
					"sampler":5,
					"target":{
						"node":0,
						"path":"scale"
					}
				}
			],
			"name":"Open",
			"samplers":[
				{
					"input":37,
					"interpolation":"STEP",
					"output":38
				},
				{
					"input":37,
					"interpolation":"STEP",
					"output":39
				},
				{
					"input":37,
					"interpolation":"STEP",
					"output":40
				},
				{
					"input":37,
					"interpolation":"STEP",
					"output":41
				},
				{
					"input":42,
					"interpolation":"LINEAR",
					"output":43
				},
				{
					"input":37,
					"interpolation":"STEP",
					"output":44
				}
			]
		}
	],
	"materials":[
		{
			"doubleSided":true,
			"name":"Material.003",
			"pbrMetallicRoughness":{
				"baseColorFactor":[
					0.4436335265636444,
					0.4817192554473877,
					0.38156139850616455,
					1
				],
				"metallicFactor":0,
				"roughnessFactor":0.5
			}
		},
		{
			"doubleSided":true,
			"name":"Material.005",
			"pbrMetallicRoughness":{
				"baseColorFactor":[
					0.1816120147705078,
					0.03556324541568756,
					0.01001383550465107,
					1
				],
				"metallicFactor":0,
				"roughnessFactor":0.5
			}
		},
		{
			"doubleSided":true,
			"name":"Material",
			"pbrMetallicRoughness":{
				"baseColorFactor":[
					0.27439236640930176,
					0.37252357602119446,
					0.3838716745376587,
					1
				],
				"metallicFactor":0,
				"roughnessFactor":0.5
			}
		},
		{
			"doubleSided":true,
			"name":"Material.002",
			"pbrMetallicRoughness":{
				"baseColorFactor":[
					0.8000000715255737,
					0.5868055820465088,
					0.0929282158613205,
					1
				],
				"metallicFactor":0,
				"roughnessFactor":0.5
			}
		},
		{
			"doubleSided":true,
			"name":"Material.001",
			"pbrMetallicRoughness":{
				"baseColorFactor":[
					0.0969933271408081,
					0.24933476746082306,
					0.8000000715255737,
					1
				],
				"metallicFactor":0,
				"roughnessFactor":0.5
			}
		},
		{
			"doubleSided":true,
			"name":"Material.006",
			"pbrMetallicRoughness":{
				"baseColorFactor":[
					0.9006591439247131,
					0.7311276793479919,
					0.13315673172473907,
					1
				],
				"metallicFactor":0,
				"roughnessFactor":0.5
			}
		}
	],
	"meshes":[
		{
			"name":"Circle",
			"primitives":[
				{
					"attributes":{
						"POSITION":0,
						"NORMAL":1,
						"TEXCOORD_0":2,
						"JOINTS_0":3,
						"WEIGHTS_0":4
					},
					"indices":5,
					"material":0
				},
				{
					"attributes":{
						"POSITION":6,
						"NORMAL":7,
						"TEXCOORD_0":8,
						"JOINTS_0":9,
						"WEIGHTS_0":10
					},
					"indices":11,
					"material":1
				},
				{
					"attributes":{
						"POSITION":12,
						"NORMAL":13,
						"TEXCOORD_0":14,
						"JOINTS_0":15,
						"WEIGHTS_0":16
					},
					"indices":17,
					"material":2
				},
				{
					"attributes":{
						"POSITION":18,
						"NORMAL":19,
						"TEXCOORD_0":20,
						"JOINTS_0":21,
						"WEIGHTS_0":22
					},
					"indices":23,
					"material":3
				},
				{
					"attributes":{
						"POSITION":24,
						"NORMAL":25,
						"TEXCOORD_0":26,
						"JOINTS_0":27,
						"WEIGHTS_0":28
					},
					"indices":29,
					"material":4
				},
				{
					"attributes":{
						"POSITION":30,
						"NORMAL":31,
						"TEXCOORD_0":32,
						"JOINTS_0":33,
						"WEIGHTS_0":34
					},
					"indices":35,
					"material":5
				}
			]
		}
	],
	"skins":[
		{
			"inverseBindMatrices":36,
			"joints":[
				1,
				0,
				2
			],
			"name":"Armature"
		}
	],
	"accessors":[
		{
			"bufferView":0,
			"componentType":5126,
			"count":448,
			"max":[
				0.07645227015018463,
				1.286706805229187,
				0.14704596996307373
			],
			"min":[
				-0.26659733057022095,
				1.2259591817855835,
				-0.19600366055965424
			],
			"type":"VEC3"
		},
		{
			"bufferView":1,
			"componentType":5126,
			"count":448,
			"type":"VEC3"
		},
		{
			"bufferView":2,
			"componentType":5126,
			"count":448,
			"type":"VEC2"
		},
		{
			"bufferView":3,
			"componentType":5121,
			"count":448,
			"type":"VEC4"
		},
		{
			"bufferView":4,
			"componentType":5126,
			"count":448,
			"type":"VEC4"
		},
		{
			"bufferView":5,
			"componentType":5123,
			"count":2532,
			"type":"SCALAR"
		},
		{
			"bufferView":6,
			"componentType":5126,
			"count":63,
			"max":[
				0.024888888001441956,
				1.3236130475997925,
				0.08367515355348587
			],
			"min":[
				-0.14429639279842377,
				1.2285271883010864,
				-0.0654737800359726
			],
			"type":"VEC3"
		},
		{
			"bufferView":7,
			"componentType":5126,
			"count":63,
			"type":"VEC3"
		},
		{
			"bufferView":8,
			"componentType":5126,
			"count":63,
			"type":"VEC2"
		},
		{
			"bufferView":9,
			"componentType":5121,
			"count":63,
			"type":"VEC4"
		},
		{
			"bufferView":10,
			"componentType":5126,
			"count":63,
			"type":"VEC4"
		},
		{
			"bufferView":11,
			"componentType":5123,
			"count":240,
			"type":"SCALAR"
		},
		{
			"bufferView":12,
			"componentType":5126,
			"count":740,
			"max":[
				0.4416888356208801,
				1.799738883972168,
				0.4323307275772095
			],
			"min":[
				-0.4323307275772095,
				0,
				-0.4323307275772095
			],
			"type":"VEC3"
		},
		{
			"bufferView":13,
			"componentType":5126,
			"count":740,
			"type":"VEC3"
		},
		{
			"bufferView":14,
			"componentType":5126,
			"count":740,
			"type":"VEC2"
		},
		{
			"bufferView":15,
			"componentType":5121,
			"count":740,
			"type":"VEC4"
		},
		{
			"bufferView":16,
			"componentType":5126,
			"count":740,
			"type":"VEC4"
		},
		{
			"bufferView":17,
			"componentType":5123,
			"count":1368,
			"type":"SCALAR"
		},
		{
			"bufferView":18,
			"componentType":5126,
			"count":331,
			"max":[
				0.28738778829574585,
				1.0427539348602295,
				0.14714935421943665
			],
			"min":[
				0.04290632903575897,
				0.9514414072036743,
				-0.09699980169534683
			],
			"type":"VEC3"
		},
		{
			"bufferView":19,
			"componentType":5126,
			"count":331,
			"type":"VEC3"
		},
		{
			"bufferView":20,
			"componentType":5126,
			"count":331,
			"type":"VEC2"
		},
		{
			"bufferView":21,
			"componentType":5121,
			"count":331,
			"type":"VEC4"
		},
		{
			"bufferView":22,
			"componentType":5126,
			"count":331,
			"type":"VEC4"
		},
		{
			"bufferView":23,
			"componentType":5123,
			"count":1140,
			"type":"SCALAR"
		},
		{
			"bufferView":24,
			"componentType":5126,
			"count":16687,
			"max":[
				0.3625061810016632,
				0.8490726351737976,
				0.29246869683265686
			],
			"min":[
				-0.3705494999885559,
				0.6722391843795776,
				-0.11145986616611481
			],
			"type":"VEC3"
		},
		{
			"bufferView":25,
			"componentType":5126,
			"count":16687,
			"type":"VEC3"
		},
		{
			"bufferView":26,
			"componentType":5126,
			"count":16687,
			"type":"VEC2"
		},
		{
			"bufferView":27,
			"componentType":5121,
			"count":16687,
			"type":"VEC4"
		},
		{
			"bufferView":28,
			"componentType":5126,
			"count":16687,
			"type":"VEC4"
		},
		{
			"bufferView":29,
			"componentType":5123,
			"count":84804,
			"type":"SCALAR"
		},
		{
			"bufferView":30,
			"componentType":5126,
			"count":287,
			"max":[
				0.2581533193588257,
				1.633014440536499,
				0.24568474292755127
			],
			"min":[
				-0.10852411389350891,
				1.4972174167633057,
				-0.01516057550907135
			],
			"type":"VEC3"
		},
		{
			"bufferView":31,
			"componentType":5126,
			"count":287,
			"type":"VEC3"
		},
		{
			"bufferView":32,
			"componentType":5126,
			"count":287,
			"type":"VEC2"
		},
		{
			"bufferView":33,
			"componentType":5121,
			"count":287,
			"type":"VEC4"
		},
		{
			"bufferView":34,
			"componentType":5126,
			"count":287,
			"type":"VEC4"
		},
		{
			"bufferView":35,
			"componentType":5123,
			"count":852,
			"type":"SCALAR"
		},
		{
			"bufferView":36,
			"componentType":5126,
			"count":3,
			"type":"MAT4"
		},
		{
			"bufferView":37,
			"componentType":5126,
			"count":2,
			"max":[
				4.166666666666667
			],
			"min":[
				0.041666666666666664
			],
			"type":"SCALAR"
		},
		{
			"bufferView":38,
			"componentType":5126,
			"count":2,
			"type":"VEC3"
		},
		{
			"bufferView":39,
			"componentType":5126,
			"count":2,
			"type":"VEC4"
		},
		{
			"bufferView":40,
			"componentType":5126,
			"count":2,
			"type":"VEC3"
		},
		{
			"bufferView":41,
			"componentType":5126,
			"count":2,
			"type":"VEC3"
		},
		{
			"bufferView":42,
			"componentType":5126,
			"count":100,
			"max":[
				4.166666666666667
			],
			"min":[
				0.041666666666666664
			],
			"type":"SCALAR"
		},
		{
			"bufferView":43,
			"componentType":5126,
			"count":100,
			"type":"VEC4"
		},
		{
			"bufferView":44,
			"componentType":5126,
			"count":2,
			"type":"VEC3"
		}
	],
	"bufferViews":[
		{
			"buffer":0,
			"byteLength":5376,
			"byteOffset":0,
			"target":34962
		},
		{
			"buffer":0,
			"byteLength":5376,
			"byteOffset":5376,
			"target":34962
		},
		{
			"buffer":0,
			"byteLength":3584,
			"byteOffset":10752,
			"target":34962
		},
		{
			"buffer":0,
			"byteLength":1792,
			"byteOffset":14336,
			"target":34962
		},
		{
			"buffer":0,
			"byteLength":7168,
			"byteOffset":16128,
			"target":34962
		},
		{
			"buffer":0,
			"byteLength":5064,
			"byteOffset":23296,
			"target":34963
		},
		{
			"buffer":0,
			"byteLength":756,
			"byteOffset":28360,
			"target":34962
		},
		{
			"buffer":0,
			"byteLength":756,
			"byteOffset":29116,
			"target":34962
		},
		{
			"buffer":0,
			"byteLength":504,
			"byteOffset":29872,
			"target":34962
		},
		{
			"buffer":0,
			"byteLength":252,
			"byteOffset":30376,
			"target":34962
		},
		{
			"buffer":0,
			"byteLength":1008,
			"byteOffset":30628,
			"target":34962
		},
		{
			"buffer":0,
			"byteLength":480,
			"byteOffset":31636,
			"target":34963
		},
		{
			"buffer":0,
			"byteLength":8880,
			"byteOffset":32116,
			"target":34962
		},
		{
			"buffer":0,
			"byteLength":8880,
			"byteOffset":40996,
			"target":34962
		},
		{
			"buffer":0,
			"byteLength":5920,
			"byteOffset":49876,
			"target":34962
		},
		{
			"buffer":0,
			"byteLength":2960,
			"byteOffset":55796,
			"target":34962
		},
		{
			"buffer":0,
			"byteLength":11840,
			"byteOffset":58756,
			"target":34962
		},
		{
			"buffer":0,
			"byteLength":2736,
			"byteOffset":70596,
			"target":34963
		},
		{
			"buffer":0,
			"byteLength":3972,
			"byteOffset":73332,
			"target":34962
		},
		{
			"buffer":0,
			"byteLength":3972,
			"byteOffset":77304,
			"target":34962
		},
		{
			"buffer":0,
			"byteLength":2648,
			"byteOffset":81276,
			"target":34962
		},
		{
			"buffer":0,
			"byteLength":1324,
			"byteOffset":83924,
			"target":34962
		},
		{
			"buffer":0,
			"byteLength":5296,
			"byteOffset":85248,
			"target":34962
		},
		{
			"buffer":0,
			"byteLength":2280,
			"byteOffset":90544,
			"target":34963
		},
		{
			"buffer":0,
			"byteLength":200244,
			"byteOffset":92824,
			"target":34962
		},
		{
			"buffer":0,
			"byteLength":200244,
			"byteOffset":293068,
			"target":34962
		},
		{
			"buffer":0,
			"byteLength":133496,
			"byteOffset":493312,
			"target":34962
		},
		{
			"buffer":0,
			"byteLength":66748,
			"byteOffset":626808,
			"target":34962
		},
		{
			"buffer":0,
			"byteLength":266992,
			"byteOffset":693556,
			"target":34962
		},
		{
			"buffer":0,
			"byteLength":169608,
			"byteOffset":960548,
			"target":34963
		},
		{
			"buffer":0,
			"byteLength":3444,
			"byteOffset":1130156,
			"target":34962
		},
		{
			"buffer":0,
			"byteLength":3444,
			"byteOffset":1133600,
			"target":34962
		},
		{
			"buffer":0,
			"byteLength":2296,
			"byteOffset":1137044,
			"target":34962
		},
		{
			"buffer":0,
			"byteLength":1148,
			"byteOffset":1139340,
			"target":34962
		},
		{
			"buffer":0,
			"byteLength":4592,
			"byteOffset":1140488,
			"target":34962
		},
		{
			"buffer":0,
			"byteLength":1704,
			"byteOffset":1145080,
			"target":34963
		},
		{
			"buffer":0,
			"byteLength":192,
			"byteOffset":1146784
		},
		{
			"buffer":0,
			"byteLength":8,
			"byteOffset":1146976
		},
		{
			"buffer":0,
			"byteLength":24,
			"byteOffset":1146984
		},
		{
			"buffer":0,
			"byteLength":32,
			"byteOffset":1147008
		},
		{
			"buffer":0,
			"byteLength":24,
			"byteOffset":1147040
		},
		{
			"buffer":0,
			"byteLength":24,
			"byteOffset":1147064
		},
		{
			"buffer":0,
			"byteLength":400,
			"byteOffset":1147088
		},
		{
			"buffer":0,
			"byteLength":1600,
			"byteOffset":1147488
		},
		{
			"buffer":0,
			"byteLength":24,
			"byteOffset":1149088
		}
	],
	"buffers":[
		{
			"byteLength":1149112,
			"uri":"data:application/octet-stream;base64,"
		}
	]
}
