{
	"asset":{
		"generator":"Khronos glTF Blender I/O v3.6.27",
		"version":"2.0"
	},
	"scene":0,
	"scenes":[
		{
			"name":"Scene",
			"nodes":[
				0,
				1,
				2
			]
		}
	],
	"nodes":[
		{
			"mesh":0,
			"name":"KitchenSink"
		},
		{
			"mesh":1,
			"name":"Handle",
			"translation":[
				0.09102559089660645,
				0.04152163863182068,
				-0.4609289765357971
			]
		},
		{
			"mesh":2,
			"name":"Faucet",
			"rotation":[
				0,
				-1,
				0,
				4.371138828673793e-08
			],
			"translation":[
				0,
				0.4480845034122467,
				0.37658199667930603
			]
		}
	],
	"materials":[
		{
			"doubleSided":true,
			"name":"Material.001",
			"pbrMetallicRoughness":{}
		},
		{
			"doubleSided":true,
			"name":"Material.002",
			"pbrMetallicRoughness":{}
		}
	],
	"meshes":[
		{
			"name":"Cube.006",
			"primitives":[
				{
					"attributes":{
						"POSITION":0,
						"NORMAL":1,
						"TEXCOORD_0":2
					},
					"indices":3,
					"material":0
				}
			]
		},
		{
			"name":"Icosphere.001",
			"primitives":[
				{
					"attributes":{
						"POSITION":4,
						"NORMAL":5,
						"TEXCOORD_0":6
					},
					"indices":7,
					"material":0
				}
			]
		},
		{
			"name":"Cube.001",
			"primitives":[
				{
					"attributes":{
						"POSITION":8,
						"NORMAL":9,
						"TEXCOORD_0":10
					},
					"indices":11,
					"material":1
				}
			]
		}
	],
	"accessors":[
		{
			"bufferView":0,
			"componentType":5126,
			"count":319,
			"max":[
				1.399999976158142,
				0.45305514335632324,
				0.44999998807907104
			],
			"min":[
				-1.399999976158142,
				-0.40000009536743164,
				-0.5345840454101562
			],
			"type":"VEC3"
		},
		{
			"bufferView":1,
			"componentType":5126,
			"count":319,
			"type":"VEC3"
		},
		{
			"bufferView":2,
			"componentType":5126,
			"count":319,
			"type":"VEC2"
		},
		{
			"bufferView":3,
			"componentType":5123,
			"count":912,
			"type":"SCALAR"
		},
		{
			"bufferView":4,
			"componentType":5126,
			"count":252,
			"max":[
				0.6024764776229858,
				0.02364710345864296,
				0.0236470066010952
			],
			"min":[
				-0.7845276594161987,
				-0.02364710345864296,
				-0.023647235706448555
			],
			"type":"VEC3"
		},
		{
			"bufferView":5,
			"componentType":5126,
			"count":252,
			"type":"VEC3"
		},
		{
			"bufferView":6,
			"componentType":5126,
			"count":252,
			"type":"VEC2"
		},
		{
			"bufferView":7,
			"componentType":5123,
			"count":960,
			"type":"SCALAR"
		},
		{
			"bufferView":8,
			"componentType":5126,
			"count":1359,
			"max":[
				0.10112941265106201,
				0.23952344059944153,
				0.14577250182628632
			],
			"min":[
				-0.07318682968616486,
				-0.007451123557984829,
				-0.020835397765040398
			],
			"type":"VEC3"
		},
		{
			"bufferView":9,
			"componentType":5126,
			"count":1359,
			"type":"VEC3"
		},
		{
			"bufferView":10,
			"componentType":5126,
			"count":1359,
			"type":"VEC2"
		},
		{
			"bufferView":11,
			"componentType":5123,
			"count":6876,
			"type":"SCALAR"
		}
	],
	"bufferViews":[
		{
			"buffer":0,
			"byteLength":3828,
			"byteOffset":0,
			"target":34962
		},
		{
			"buffer":0,
			"byteLength":3828,
			"byteOffset":3828,
			"target":34962
		},
		{
			"buffer":0,
			"byteLength":2552,
			"byteOffset":7656,
			"target":34962
		},
		{
			"buffer":0,
			"byteLength":1824,
			"byteOffset":10208,
			"target":34963
		},
		{
			"buffer":0,
			"byteLength":3024,
			"byteOffset":12032,
			"target":34962
		},
		{
			"buffer":0,
			"byteLength":3024,
			"byteOffset":15056,
			"target":34962
		},
		{
			"buffer":0,
			"byteLength":2016,
			"byteOffset":18080,
			"target":34962
		},
		{
			"buffer":0,
			"byteLength":1920,
			"byteOffset":20096,
			"target":34963
		},
		{
			"buffer":0,
			"byteLength":16308,
			"byteOffset":22016,
			"target":34962
		},
		{
			"buffer":0,
			"byteLength":16308,
			"byteOffset":38324,
			"target":34962
		},
		{
			"buffer":0,
			"byteLength":10872,
			"byteOffset":54632,
			"target":34962
		},
		{
			"buffer":0,
			"byteLength":13752,
			"byteOffset":65504,
			"target":34963
		}
	],
	"buffers":[
		{
			"byteLength":79256,
			"uri":"data:application/octet-stream;base64,"
		}
	]
}
