{
	"asset":{
		"generator":"Khronos glTF Blender I/O v3.6.27",
		"version":"2.0"
	},
	"scene":0,
	"scenes":[
		{
			"name":"Scene",
			"nodes":[
				0
			]
		}
	],
	"nodes":[
		{
			"mesh":0,
			"name":"Cylinder"
		}
	],
	"materials":[
		{
			"doubleSided":true,
			"name":"Material.002",
			"pbrMetallicRoughness":{}
		}
	],
	"meshes":[
		{
			"name":"Cylinder",
			"primitives":[
				{
					"attributes":{
						"POSITION":0,
						"NORMAL":1,
						"TEXCOORD_0":2
					},
					"indices":3,
					"material":0
				}
			]
		}
	],
	"accessors":[
		{
			"bufferView":0,
			"componentType":5126,
			"count":715,
			"max":[
				0.3311326801776886,
				1.9454631805419922,
				0.331132709980011
			],
			"min":[
				-0.3311326205730438,
				0,
				-0.331132709980011
			],
			"type":"VEC3"
		},
		{
			"bufferView":1,
			"componentType":5126,
			"count":715,
			"type":"VEC3"
		},
		{
			"bufferView":2,
			"componentType":5126,
			"count":715,
			"type":"VEC2"
		},
		{
			"bufferView":3,
			"componentType":5123,
			"count":3636,
			"type":"SCALAR"
		}
	],
	"bufferViews":[
		{
			"buffer":0,
			"byteLength":8580,
			"byteOffset":0,
			"target":34962
		},
		{
			"buffer":0,
			"byteLength":8580,
			"byteOffset":8580,
			"target":34962
		},
		{
			"buffer":0,
			"byteLength":5720,
			"byteOffset":17160,
			"target":34962
		},
		{
			"buffer":0,
			"byteLength":7272,
			"byteOffset":22880,
			"target":34963
		}
	],
	"buffers":[
		{
			"byteLength":30152,
			"uri":"data:application/octet-stream;base64,"
		}
	]
}
