{
	"asset":{
		"generator":"Khronos glTF Blender I/O v3.6.27",
		"version":"2.0"
	},
	"scene":0,
	"scenes":[
		{
			"name":"Scene",
			"nodes":[
				0,
				1,
				2
			]
		}
	],
	"nodes":[
		{
			"mesh":0,
			"name":"Toilette"
		},
		{
			"mesh":1,
			"name":"Cover",
			"translation":[
				0,
				0.4834401309490204,
				0.2330874800682068
			]
		},
		{
			"mesh":2,
			"name":"CoverFix"
		}
	],
	"materials":[
		{
			"doubleSided":true,
			"name":"Material.001",
			"pbrMetallicRoughness":{}
		}
	],
	"meshes":[
		{
			"name":"Cube.003",
			"primitives":[
				{
					"attributes":{
						"POSITION":0,
						"NORMAL":1,
						"TEXCOORD_0":2
					},
					"indices":3,
					"material":0
				}
			]
		},
		{
			"name":"Cube.006",
			"primitives":[
				{
					"attributes":{
						"POSITION":4,
						"NORMAL":5,
						"TEXCOORD_0":6
					},
					"indices":7,
					"material":0
				}
			]
		},
		{
			"name":"Cube.007",
			"primitives":[
				{
					"attributes":{
						"POSITION":8,
						"NORMAL":9,
						"TEXCOORD_0":10
					},
					"indices":11,
					"material":0
				}
			]
		}
	],
	"accessors":[
		{
			"bufferView":0,
			"componentType":5126,
			"count":2382,
			"max":[
				0.2283468395471573,
				0.8862972855567932,
				0.6668501496315002
			],
			"min":[
				-0.2283468097448349,
				-0.056994155049324036,
				0.0032501565292477608
			],
			"type":"VEC3"
		},
		{
			"bufferView":1,
			"componentType":5126,
			"count":2382,
			"type":"VEC3"
		},
		{
			"bufferView":2,
			"componentType":5126,
			"count":2382,
			"type":"VEC2"
		},
		{
			"bufferView":3,
			"componentType":5123,
			"count":12360,
			"type":"SCALAR"
		},
		{
			"bufferView":4,
			"componentType":5126,
			"count":255,
			"max":[
				0.2157248556613922,
				0.016339492052793503,
				0.4355100989341736
			],
			"min":[
				-0.2157248556613922,
				-0.01554883737117052,
				-1.0430812658057675e-08
			],
			"type":"VEC3"
		},
		{
			"bufferView":5,
			"componentType":5126,
			"count":255,
			"type":"VEC3"
		},
		{
			"bufferView":6,
			"componentType":5126,
			"count":255,
			"type":"VEC2"
		},
		{
			"bufferView":7,
			"componentType":5123,
			"count":1206,
			"type":"SCALAR"
		},
		{
			"bufferView":8,
			"componentType":5126,
			"count":112,
			"max":[
				0.2157248556613922,
				0.499779611825943,
				0.225873664021492
			],
			"min":[
				-0.2157248556613922,
				0.46873539686203003,
				0.1493968814611435
			],
			"type":"VEC3"
		},
		{
			"bufferView":9,
			"componentType":5126,
			"count":112,
			"type":"VEC3"
		},
		{
			"bufferView":10,
			"componentType":5126,
			"count":112,
			"type":"VEC2"
		},
		{
			"bufferView":11,
			"componentType":5123,
			"count":660,
			"type":"SCALAR"
		}
	],
	"bufferViews":[
		{
			"buffer":0,
			"byteLength":28584,
			"byteOffset":0,
			"target":34962
		},
		{
			"buffer":0,
			"byteLength":28584,
			"byteOffset":28584,
			"target":34962
		},
		{
			"buffer":0,
			"byteLength":19056,
			"byteOffset":57168,
			"target":34962
		},
		{
			"buffer":0,
			"byteLength":24720,
			"byteOffset":76224,
			"target":34963
		},
		{
			"buffer":0,
			"byteLength":3060,
			"byteOffset":100944,
			"target":34962
		},
		{
			"buffer":0,
			"byteLength":3060,
			"byteOffset":104004,
			"target":34962
		},
		{
			"buffer":0,
			"byteLength":2040,
			"byteOffset":107064,
			"target":34962
		},
		{
			"buffer":0,
			"byteLength":2412,
			"byteOffset":109104,
			"target":34963
		},
		{
			"buffer":0,
			"byteLength":1344,
			"byteOffset":111516,
			"target":34962
		},
		{
			"buffer":0,
			"byteLength":1344,
			"byteOffset":112860,
			"target":34962
		},
		{
			"buffer":0,
			"byteLength":896,
			"byteOffset":114204,
			"target":34962
		},
		{
			"buffer":0,
			"byteLength":1320,
			"byteOffset":115100,
			"target":34963
		}
	],
	"buffers":[
		{
			"byteLength":116420,
			"uri":"data:application/octet-stream;base64,"
		}
	]
}
