{
	"asset":{
		"generator":"Khronos glTF Blender I/O v3.6.27",
		"version":"2.0"
	},
	"scene":0,
	"scenes":[
		{
			"name":"Scene",
			"nodes":[
				0,
				1
			]
		}
	],
	"nodes":[
		{
			"mesh":0,
			"name":"tv",
			"translation":[
				0,
				0.8210888504981995,
				0
			]
		},
		{
			"mesh":1,
			"name":"legs",
			"scale":[
				0.656977117061615,
				0.656977117061615,
				0.656977117061615
			],
			"translation":[
				0,
				0.5371291041374207,
				0.42598727345466614
			]
		}
	],
	"materials":[
		{
			"doubleSided":true,
			"name":"Material",
			"pbrMetallicRoughness":{
				"baseColorFactor":[
					0.800000011920929,
					0.800000011920929,
					0.800000011920929,
					1
				],
				"metallicFactor":0,
				"roughnessFactor":0.5
			}
		}
	],
	"meshes":[
		{
			"name":"Cube",
			"primitives":[
				{
					"attributes":{
						"POSITION":0,
						"NORMAL":1,
						"TEXCOORD_0":2
					},
					"indices":3,
					"material":0
				}
			]
		},
		{
			"name":"Cube.001",
			"primitives":[
				{
					"attributes":{
						"POSITION":4,
						"NORMAL":5,
						"TEXCOORD_0":6
					},
					"indices":7
				}
			]
		}
	],
	"accessors":[
		{
			"bufferView":0,
			"componentType":5126,
			"count":195,
			"max":[
				0.021312136203050613,
				0.28124967217445374,
				0.49999937415122986
			],
			"min":[
				-0.06226585805416107,
				-0.28124967217445374,
				-0.49999937415122986
			],
			"type":"VEC3"
		},
		{
			"bufferView":1,
			"componentType":5126,
			"count":195,
			"type":"VEC3"
		},
		{
			"bufferView":2,
			"componentType":5126,
			"count":195,
			"type":"VEC2"
		},
		{
			"bufferView":3,
			"componentType":5123,
			"count":348,
			"type":"SCALAR"
		},
		{
			"bufferView":4,
			"componentType":5126,
			"count":112,
			"max":[
				0.15471607446670532,
				0.027710717171430588,
				0.027710717171430588
			],
			"min":[
				-0.15471605956554413,
				-0.12712614238262177,
				-1.3245207071304321
			],
			"type":"VEC3"
		},
		{
			"bufferView":5,
			"componentType":5126,
			"count":112,
			"type":"VEC3"
		},
		{
			"bufferView":6,
			"componentType":5126,
			"count":112,
			"type":"VEC2"
		},
		{
			"bufferView":7,
			"componentType":5123,
			"count":228,
			"type":"SCALAR"
		}
	],
	"bufferViews":[
		{
			"buffer":0,
			"byteLength":2340,
			"byteOffset":0,
			"target":34962
		},
		{
			"buffer":0,
			"byteLength":2340,
			"byteOffset":2340,
			"target":34962
		},
		{
			"buffer":0,
			"byteLength":1560,
			"byteOffset":4680,
			"target":34962
		},
		{
			"buffer":0,
			"byteLength":696,
			"byteOffset":6240,
			"target":34963
		},
		{
			"buffer":0,
			"byteLength":1344,
			"byteOffset":6936,
			"target":34962
		},
		{
			"buffer":0,
			"byteLength":1344,
			"byteOffset":8280,
			"target":34962
		},
		{
			"buffer":0,
			"byteLength":896,
			"byteOffset":9624,
			"target":34962
		},
		{
			"buffer":0,
			"byteLength":456,
			"byteOffset":10520,
			"target":34963
		}
	],
	"buffers":[
		{
			"byteLength":10976,
			"uri":"data:application/octet-stream;base64,"
		}
	]
}
