{
	"asset":{
		"generator":"Khronos glTF Blender I/O v3.6.27",
		"version":"2.0"
	},
	"scene":0,
	"scenes":[
		{
			"name":"Scene",
			"nodes":[
				0,
				1,
				2
			]
		}
	],
	"nodes":[
		{
			"mesh":0,
			"name":"tv",
			"translation":[
				0,
				0.8210888504981995,
				0
			]
		},
		{
			"mesh":1,
			"name":"legs",
			"translation":[
				0,
				0.5371291041374207,
				0.42598727345466614
			]
		},
		{
			"mesh":2,
			"name":"stand",
			"translation":[
				0,
				0.1600375473499298,
				0
			]
		}
	],
	"materials":[
		{
			"doubleSided":true,
			"name":"Material.001",
			"pbrMetallicRoughness":{}
		}
	],
	"meshes":[
		{
			"name":"Cube",
			"primitives":[
				{
					"attributes":{
						"POSITION":0,
						"NORMAL":1,
						"TEXCOORD_0":2
					},
					"indices":3,
					"material":0
				}
			]
		},
		{
			"name":"Cube.001",
			"primitives":[
				{
					"attributes":{
						"POSITION":4,
						"NORMAL":5,
						"TEXCOORD_0":6
					},
					"indices":7,
					"material":0
				}
			]
		},
		{
			"name":"Cube.003",
			"primitives":[
				{
					"attributes":{
						"POSITION":8,
						"NORMAL":9,
						"TEXCOORD_0":10
					},
					"indices":11,
					"material":0
				}
			]
		}
	],
	"accessors":[
		{
			"bufferView":0,
			"componentType":5126,
			"count":194,
			"max":[
				0.021312136203050613,
				0.28124967217445374,
				0.49999937415122986
			],
			"min":[
				-0.06226585805416107,
				-0.28124967217445374,
				-0.49999937415122986
			],
			"type":"VEC3"
		},
		{
			"bufferView":1,
			"componentType":5126,
			"count":194,
			"type":"VEC3"
		},
		{
			"bufferView":2,
			"componentType":5126,
			"count":194,
			"type":"VEC2"
		},
		{
			"bufferView":3,
			"componentType":5123,
			"count":348,
			"type":"SCALAR"
		},
		{
			"bufferView":4,
			"componentType":5126,
			"count":112,
			"max":[
				0.10164491832256317,
				0.01820530742406845,
				0.01820530742406845
			],
			"min":[
				-0.10164491087198257,
				-0.08351896703243256,
				-0.8701797723770142
			],
			"type":"VEC3"
		},
		{
			"bufferView":5,
			"componentType":5126,
			"count":112,
			"type":"VEC3"
		},
		{
			"bufferView":6,
			"componentType":5126,
			"count":112,
			"type":"VEC2"
		},
		{
			"bufferView":7,
			"componentType":5123,
			"count":228,
			"type":"SCALAR"
		},
		{
			"bufferView":8,
			"componentType":5126,
			"count":321,
			"max":[
				0.2362513542175293,
				0.2964959442615509,
				0.807180643081665
			],
			"min":[
				-0.21949782967567444,
				-0.16022413969039917,
				-0.807180643081665
			],
			"type":"VEC3"
		},
		{
			"bufferView":9,
			"componentType":5126,
			"count":321,
			"type":"VEC3"
		},
		{
			"bufferView":10,
			"componentType":5126,
			"count":321,
			"type":"VEC2"
		},
		{
			"bufferView":11,
			"componentType":5123,
			"count":984,
			"type":"SCALAR"
		}
	],
	"bufferViews":[
		{
			"buffer":0,
			"byteLength":2328,
			"byteOffset":0,
			"target":34962
		},
		{
			"buffer":0,
			"byteLength":2328,
			"byteOffset":2328,
			"target":34962
		},
		{
			"buffer":0,
			"byteLength":1552,
			"byteOffset":4656,
			"target":34962
		},
		{
			"buffer":0,
			"byteLength":696,
			"byteOffset":6208,
			"target":34963
		},
		{
			"buffer":0,
			"byteLength":1344,
			"byteOffset":6904,
			"target":34962
		},
		{
			"buffer":0,
			"byteLength":1344,
			"byteOffset":8248,
			"target":34962
		},
		{
			"buffer":0,
			"byteLength":896,
			"byteOffset":9592,
			"target":34962
		},
		{
			"buffer":0,
			"byteLength":456,
			"byteOffset":10488,
			"target":34963
		},
		{
			"buffer":0,
			"byteLength":3852,
			"byteOffset":10944,
			"target":34962
		},
		{
			"buffer":0,
			"byteLength":3852,
			"byteOffset":14796,
			"target":34962
		},
		{
			"buffer":0,
			"byteLength":2568,
			"byteOffset":18648,
			"target":34962
		},
		{
			"buffer":0,
			"byteLength":1968,
			"byteOffset":21216,
			"target":34963
		}
	],
	"buffers":[
		{
			"byteLength":23184,
			"uri":"data:application/octet-stream;base64,"
		}
	]
}
