{
	"asset":{
		"generator":"Khronos glTF Blender I/O v3.6.27",
		"version":"2.0"
	},
	"scene":0,
	"scenes":[
		{
			"name":"Scene",
			"nodes":[
				0
			]
		}
	],
	"nodes":[
		{
			"mesh":0,
			"name":"stand",
			"scale":[
				0.21949782967567444,
				0.16022413969039917,
				0.807180643081665
			],
			"translation":[
				0,
				0.1600375473499298,
				0
			]
		}
	],
	"meshes":[
		{
			"name":"Cube.003",
			"primitives":[
				{
					"attributes":{
						"POSITION":0,
						"NORMAL":1,
						"TEXCOORD_0":2
					},
					"indices":3
				}
			]
		}
	],
	"accessors":[
		{
			"bufferView":0,
			"componentType":5126,
			"count":321,
			"max":[
				1.076326608657837,
				1.8505072593688965,
				1
			],
			"min":[
				-1,
				-1,
				-1
			],
			"type":"VEC3"
		},
		{
			"bufferView":1,
			"componentType":5126,
			"count":321,
			"type":"VEC3"
		},
		{
			"bufferView":2,
			"componentType":5126,
			"count":321,
			"type":"VEC2"
		},
		{
			"bufferView":3,
			"componentType":5123,
			"count":984,
			"type":"SCALAR"
		}
	],
	"bufferViews":[
		{
			"buffer":0,
			"byteLength":3852,
			"byteOffset":0,
			"target":34962
		},
		{
			"buffer":0,
			"byteLength":3852,
			"byteOffset":3852,
			"target":34962
		},
		{
			"buffer":0,
			"byteLength":2568,
			"byteOffset":7704,
			"target":34962
		},
		{
			"buffer":0,
			"byteLength":1968,
			"byteOffset":10272,
			"target":34963
		}
	],
	"buffers":[
		{
			"byteLength":12240,
			"uri":"data:application/octet-stream;base64,"
		}
	]
}
