{
	"asset":{
		"generator":"Khronos glTF Blender I/O v3.6.27",
		"version":"2.0"
	},
	"scene":0,
	"scenes":[
		{
			"name":"Scene",
			"nodes":[
				0,
				1,
				2,
				3,
				4,
				5,
				6,
				7
			]
		}
	],
	"nodes":[
		{
			"mesh":0,
			"name":"Wall",
			"scale":[
				1.5,
				1,
				1.5
			],
			"translation":[
				0.10950610041618347,
				0,
				-0.0229705348610878
			]
		},
		{
			"mesh":1,
			"name":"Wall.001",
			"translation":[
				0.10950610041618347,
				0,
				-0.0229705348610878
			]
		},
		{
			"mesh":2,
			"name":"Wall.002",
			"scale":[
				1.5,
				1,
				1.5
			],
			"translation":[
				0.10950610041618347,
				0,
				-0.0229705348610878
			]
		},
		{
			"mesh":3,
			"name":"Wall.003",
			"scale":[
				1.5,
				1,
				1.5
			],
			"translation":[
				0.10950610041618347,
				0,
				-0.0229705348610878
			]
		},
		{
			"mesh":4,
			"name":"Wall.004",
			"scale":[
				1.5,
				1,
				1.5
			],
			"translation":[
				0.10950610041618347,
				0,
				-0.0229705348610878
			]
		},
		{
			"mesh":5,
			"name":"Wall.005",
			"scale":[
				1.5,
				1,
				1.5
			],
			"translation":[
				0.10950610041618347,
				0,
				-0.0229705348610878
			]
		},
		{
			"mesh":6,
			"name":"Wall.006",
			"scale":[
				1.5,
				1,
				1.5
			],
			"translation":[
				0.10950610041618347,
				0,
				-0.0229705348610878
			]
		},
		{
			"mesh":7,
			"name":"Wall.007",
			"scale":[
				1.5,
				1,
				1.5
			],
			"translation":[
				0.10950610041618347,
				0,
				-0.0229705348610878
			]
		}
	],
	"meshes":[
		{
			"name":"Plane",
			"primitives":[
				{
					"attributes":{
						"POSITION":0,
						"NORMAL":1,
						"TEXCOORD_0":2
					},
					"indices":3
				}
			]
		},
		{
			"name":"Plane.002",
			"primitives":[
				{
					"attributes":{
						"POSITION":4,
						"NORMAL":5,
						"TEXCOORD_0":6
					},
					"indices":7
				}
			]
		},
		{
			"name":"Plane.003",
			"primitives":[
				{
					"attributes":{
						"POSITION":8,
						"NORMAL":9,
						"TEXCOORD_0":10
					},
					"indices":11
				}
			]
		},
		{
			"name":"Plane.004",
			"primitives":[
				{
					"attributes":{
						"POSITION":12,
						"NORMAL":13,
						"TEXCOORD_0":14
					},
					"indices":15
				}
			]
		},
		{
			"name":"Plane.005",
			"primitives":[
				{
					"attributes":{
						"POSITION":16,
						"NORMAL":17,
						"TEXCOORD_0":18
					},
					"indices":19
				}
			]
		},
		{
			"name":"Plane.006",
			"primitives":[
				{
					"attributes":{
						"POSITION":20,
						"NORMAL":21,
						"TEXCOORD_0":22
					},
					"indices":23
				}
			]
		},
		{
			"name":"Plane.007",
			"primitives":[
				{
					"attributes":{
						"POSITION":24,
						"NORMAL":25,
						"TEXCOORD_0":26
					},
					"indices":27
				}
			]
		},
		{
			"name":"Plane.008",
			"primitives":[
				{
					"attributes":{
						"POSITION":28,
						"NORMAL":29,
						"TEXCOORD_0":30
					},
					"indices":31
				}
			]
		}
	],
	"accessors":[
		{
			"bufferView":0,
			"componentType":5126,
			"count":144,
			"max":[
				3.6500000953674316,
				2.5,
				3.5
			],
			"min":[
				3.5,
				0,
				-2.7098047733306885
			],
			"type":"VEC3"
		},
		{
			"bufferView":1,
			"componentType":5126,
			"count":144,
			"type":"VEC3"
		},
		{
			"bufferView":2,
			"componentType":5126,
			"count":144,
			"type":"VEC2"
		},
		{
			"bufferView":3,
			"componentType":5123,
			"count":396,
			"type":"SCALAR"
		},
		{
			"bufferView":4,
			"componentType":5126,
			"count":40,
			"max":[
				-5.024999618530273,
				2.5,
				2.193404197692871
			],
			"min":[
				-5.25,
				0,
				-3.8397068977355957
			],
			"type":"VEC3"
		},
		{
			"bufferView":5,
			"componentType":5126,
			"count":40,
			"type":"VEC3"
		},
		{
			"bufferView":6,
			"componentType":5126,
			"count":40,
			"type":"VEC2"
		},
		{
			"bufferView":7,
			"componentType":5123,
			"count":84,
			"type":"SCALAR"
		},
		{
			"bufferView":8,
			"componentType":5126,
			"count":92,
			"max":[
				0.9147318601608276,
				2.5,
				3.5
			],
			"min":[
				0.7647316455841064,
				0,
				-2.559804677963257
			],
			"type":"VEC3"
		},
		{
			"bufferView":9,
			"componentType":5126,
			"count":92,
			"type":"VEC3"
		},
		{
			"bufferView":10,
			"componentType":5126,
			"count":92,
			"type":"VEC2"
		},
		{
			"bufferView":11,
			"componentType":5123,
			"count":228,
			"type":"SCALAR"
		},
		{
			"bufferView":12,
			"componentType":5126,
			"count":92,
			"max":[
				-0.6957935094833374,
				2.5,
				1.4622693061828613
			],
			"min":[
				-0.8457936644554138,
				0,
				-2.559804677963257
			],
			"type":"VEC3"
		},
		{
			"bufferView":13,
			"componentType":5126,
			"count":92,
			"type":"VEC3"
		},
		{
			"bufferView":14,
			"componentType":5126,
			"count":92,
			"type":"VEC2"
		},
		{
			"bufferView":15,
			"componentType":5123,
			"count":228,
			"type":"SCALAR"
		},
		{
			"bufferView":16,
			"componentType":5126,
			"count":80,
			"max":[
				3.5,
				2.5,
				3.5
			],
			"min":[
				0.9147318601608276,
				0,
				3.3499999046325684
			],
			"type":"VEC3"
		},
		{
			"bufferView":17,
			"componentType":5126,
			"count":80,
			"type":"VEC3"
		},
		{
			"bufferView":18,
			"componentType":5126,
			"count":80,
			"type":"VEC2"
		},
		{
			"bufferView":19,
			"componentType":5123,
			"count":192,
			"type":"SCALAR"
		},
		{
			"bufferView":20,
			"componentType":5126,
			"count":184,
			"max":[
				3.5,
				2.5,
				-2.559804677963257
			],
			"min":[
				-3.5,
				0,
				-2.7098047733306885
			],
			"type":"VEC3"
		},
		{
			"bufferView":21,
			"componentType":5126,
			"count":184,
			"type":"VEC3"
		},
		{
			"bufferView":22,
			"componentType":5126,
			"count":184,
			"type":"VEC2"
		},
		{
			"bufferView":23,
			"componentType":5123,
			"count":504,
			"type":"SCALAR"
		},
		{
			"bufferView":24,
			"componentType":5126,
			"count":132,
			"max":[
				0.7647318243980408,
				2.5,
				1.612269401550293
			],
			"min":[
				-3.5,
				0,
				1.4622693061828613
			],
			"type":"VEC3"
		},
		{
			"bufferView":25,
			"componentType":5126,
			"count":132,
			"type":"VEC3"
		},
		{
			"bufferView":26,
			"componentType":5126,
			"count":132,
			"type":"VEC2"
		},
		{
			"bufferView":27,
			"componentType":5123,
			"count":336,
			"type":"SCALAR"
		},
		{
			"bufferView":28,
			"componentType":5126,
			"count":104,
			"max":[
				3.5,
				2.5,
				0.12068623304367065
			],
			"min":[
				-0.6957935094833374,
				0,
				-0.029313772916793823
			],
			"type":"VEC3"
		},
		{
			"bufferView":29,
			"componentType":5126,
			"count":104,
			"type":"VEC3"
		},
		{
			"bufferView":30,
			"componentType":5126,
			"count":104,
			"type":"VEC2"
		},
		{
			"bufferView":31,
			"componentType":5123,
			"count":252,
			"type":"SCALAR"
		}
	],
	"bufferViews":[
		{
			"buffer":0,
			"byteLength":1728,
			"byteOffset":0,
			"target":34962
		},
		{
			"buffer":0,
			"byteLength":1728,
			"byteOffset":1728,
			"target":34962
		},
		{
			"buffer":0,
			"byteLength":1152,
			"byteOffset":3456,
			"target":34962
		},
		{
			"buffer":0,
			"byteLength":792,
			"byteOffset":4608,
			"target":34963
		},
		{
			"buffer":0,
			"byteLength":480,
			"byteOffset":5400,
			"target":34962
		},
		{
			"buffer":0,
			"byteLength":480,
			"byteOffset":5880,
			"target":34962
		},
		{
			"buffer":0,
			"byteLength":320,
			"byteOffset":6360,
			"target":34962
		},
		{
			"buffer":0,
			"byteLength":168,
			"byteOffset":6680,
			"target":34963
		},
		{
			"buffer":0,
			"byteLength":1104,
			"byteOffset":6848,
			"target":34962
		},
		{
			"buffer":0,
			"byteLength":1104,
			"byteOffset":7952,
			"target":34962
		},
		{
			"buffer":0,
			"byteLength":736,
			"byteOffset":9056,
			"target":34962
		},
		{
			"buffer":0,
			"byteLength":456,
			"byteOffset":9792,
			"target":34963
		},
		{
			"buffer":0,
			"byteLength":1104,
			"byteOffset":10248,
			"target":34962
		},
		{
			"buffer":0,
			"byteLength":1104,
			"byteOffset":11352,
			"target":34962
		},
		{
			"buffer":0,
			"byteLength":736,
			"byteOffset":12456,
			"target":34962
		},
		{
			"buffer":0,
			"byteLength":456,
			"byteOffset":13192,
			"target":34963
		},
		{
			"buffer":0,
			"byteLength":960,
			"byteOffset":13648,
			"target":34962
		},
		{
			"buffer":0,
			"byteLength":960,
			"byteOffset":14608,
			"target":34962
		},
		{
			"buffer":0,
			"byteLength":640,
			"byteOffset":15568,
			"target":34962
		},
		{
			"buffer":0,
			"byteLength":384,
			"byteOffset":16208,
			"target":34963
		},
		{
			"buffer":0,
			"byteLength":2208,
			"byteOffset":16592,
			"target":34962
		},
		{
			"buffer":0,
			"byteLength":2208,
			"byteOffset":18800,
			"target":34962
		},
		{
			"buffer":0,
			"byteLength":1472,
			"byteOffset":21008,
			"target":34962
		},
		{
			"buffer":0,
			"byteLength":1008,
			"byteOffset":22480,
			"target":34963
		},
		{
			"buffer":0,
			"byteLength":1584,
			"byteOffset":23488,
			"target":34962
		},
		{
			"buffer":0,
			"byteLength":1584,
			"byteOffset":25072,
			"target":34962
		},
		{
			"buffer":0,
			"byteLength":1056,
			"byteOffset":26656,
			"target":34962
		},
		{
			"buffer":0,
			"byteLength":672,
			"byteOffset":27712,
			"target":34963
		},
		{
			"buffer":0,
			"byteLength":1248,
			"byteOffset":28384,
			"target":34962
		},
		{
			"buffer":0,
			"byteLength":1248,
			"byteOffset":29632,
			"target":34962
		},
		{
			"buffer":0,
			"byteLength":832,
			"byteOffset":30880,
			"target":34962
		},
		{
			"buffer":0,
			"byteLength":504,
			"byteOffset":31712,
			"target":34963
		}
	],
	"buffers":[
		{
			"byteLength":32216,
			"uri":"data:application/octet-stream;base64,"
		}
	]
}
